<svg width="89" height="76" viewBox="0 0 89 76" fill="none" xmlns="http://www.w3.org/2000/svg">
<path d="M7.9239 1.53111C7.39615 1.53361 6.8924 1.57848 6.4489 1.65698C5.14265 1.88773 4.90565 2.37073 4.90565 3.26161V4.43798H7.99228V4.83011H3.74715C2.85015 4.83011 2.06465 5.36923 1.8189 6.39523C1.5354 7.57086 1.5229 8.30461 1.8189 9.53223C2.03828 10.4461 2.56228 11.0971 3.4594 11.0971H4.52078V9.68686C4.52078 8.66798 5.40215 7.76936 6.44903 7.76936H9.53215C10.3904 7.76936 11.0754 7.06261 11.0754 6.20086V3.26173C11.0754 2.42511 10.3697 1.79673 9.53215 1.65711C9.00165 1.56886 8.45153 1.52873 7.9239 1.53111ZM6.25465 2.47723C6.5734 2.47723 6.8339 2.74186 6.8339 3.06736C6.8339 3.39148 6.57352 3.65361 6.25465 3.65361C5.93465 3.65361 5.67553 3.39148 5.67553 3.06736C5.6754 2.74186 5.93465 2.47723 6.25465 2.47723Z" fill="url(#paint0_linear_51_242)"/>
<path d="M11.4601 4.82996V6.20071C11.4601 7.26321 10.5591 8.15758 9.53189 8.15758H6.44877C5.60427 8.15758 4.90552 8.88046 4.90552 9.72621V12.6656C4.90552 13.502 5.63277 13.9941 6.44877 14.234C7.42577 14.5211 8.36277 14.5731 9.53189 14.234C10.3089 14.0088 11.0751 13.5561 11.0751 12.6656V11.4891H7.99214V11.0968H12.6186C13.5156 11.0968 13.8501 10.4712 14.1621 9.53196C14.4844 8.56508 14.4705 7.63521 14.1621 6.39496C13.9404 5.50183 13.517 4.82983 12.6186 4.82983L11.4601 4.82996ZM9.72602 12.2733C10.0461 12.2733 10.3053 12.5355 10.3053 12.8598C10.3053 13.1851 10.046 13.4497 9.72602 13.4497C9.40727 13.4497 9.14689 13.1851 9.14689 12.8598C9.14689 12.5355 9.40727 12.2733 9.72602 12.2733Z" fill="url(#paint1_linear_51_242)"/>
<path opacity="0.444" d="M12.1637 14.9496C12.1637 15.3925 10.3117 15.7516 8.02737 15.7516C5.74287 15.7516 3.89087 15.3925 3.89087 14.9496C3.89087 14.5067 5.74274 14.1475 8.02737 14.1475C10.3117 14.1475 12.1637 14.5065 12.1637 14.9496Z" fill="url(#paint2_radial_51_242)"/>
<defs>
<linearGradient id="paint0_linear_51_242" x1="1.29213" y1="1.89893" x2="8.41136" y2="7.97017" gradientUnits="userSpaceOnUse">
<stop stop-color="#5A9FD4"/>
<stop offset="1" stop-color="#306998"/>
</linearGradient>
<linearGradient id="paint1_linear_51_242" x1="11.0898" y1="11.744" x2="8.53668" y2="8.16374" gradientUnits="userSpaceOnUse">
<stop stop-color="#FFD43B"/>
<stop offset="1" stop-color="#FFE873"/>
</linearGradient>
<radialGradient id="paint2_radial_51_242" cx="0" cy="0" r="1" gradientUnits="userSpaceOnUse" gradientTransform="translate(8.01065 14.9266) rotate(-90) scale(0.80229 3.52673)">
<stop stop-color="#B8B8B8" stop-opacity="0.498"/>
<stop offset="1" stop-color="#7F7F7F" stop-opacity="0"/>
</radialGradient>
</defs>
</svg>
