<svg width="55" height="55" viewBox="0 0 55 55" fill="none" xmlns="http://www.w3.org/2000/svg">
<path d="M50.1231 2.07544H4.8813C3.33167 2.07544 2.07544 3.33167 2.07544 4.8813V50.1231C2.07544 51.6727 3.33167 52.929 4.8813 52.929H50.1231C51.6727 52.929 52.929 51.6727 52.929 50.1231V4.8813C52.929 3.33167 51.6727 2.07544 50.1231 2.07544Z" fill="#3D5A98"/>
<path d="M37.1593 52.9246V33.232H43.7679L44.7562 25.5578H37.1593V20.6594C37.1593 18.4379 37.7781 16.9211 40.9621 16.9211H45.0269V10.0461C43.0585 9.84131 41.0805 9.74377 39.1015 9.75389C33.2492 9.75389 29.2187 13.3203 29.2187 19.8988V25.5578H22.6101V33.232H29.2187V52.9246H37.1593Z" fill="white"/>
</svg>
