<svg width="39" height="39" viewBox="0 0 39 39" fill="none" xmlns="http://www.w3.org/2000/svg">
<path d="M7.501 30.875C6.75242 30.875 6.12788 30.6248 5.62738 30.1243C5.12688 29.6238 4.87608 28.9987 4.875 28.249V10.751C4.875 10.0024 5.12579 9.37787 5.62738 8.87737C6.12896 8.37687 6.75296 8.12608 7.49937 8.125H31.5006C32.2481 8.125 32.8721 8.37579 33.3726 8.87737C33.8731 9.37896 34.1239 10.0035 34.125 10.751V28.2506C34.125 28.9981 33.8742 29.6227 33.3726 30.1243C32.871 30.6258 32.247 30.8761 31.5006 30.875H7.501ZM19.5 19.6885L32.5 11.1881L31.9995 9.75L19.5 17.875L7.0005 9.75L6.5 11.1881L19.5 19.6885Z" fill="black"/>
</svg>
