<svg width="55" height="55" viewBox="0 0 55 55" fill="none" xmlns="http://www.w3.org/2000/svg">
<g clip-path="url(#clip0_38_60)">
<path d="M42.1094 0H12.8906C5.77133 0 0 5.77133 0 12.8906V42.1094C0 49.2287 5.77133 55 12.8906 55H42.1094C49.2287 55 55 49.2287 55 42.1094V12.8906C55 5.77133 49.2287 0 42.1094 0Z" fill="white"/>
<path d="M42.1094 0H12.8906C5.77133 0 0 5.77133 0 12.8906V42.1094C0 49.2287 5.77133 55 12.8906 55H42.1094C49.2287 55 55 49.2287 55 42.1094V12.8906C55 5.77133 49.2287 0 42.1094 0Z" fill="#0A66C2"/>
<path d="M39.6849 46.7683H45.9733C46.2012 46.7683 46.4198 46.6777 46.5809 46.5166C46.7421 46.3555 46.8327 46.137 46.8327 45.9091L46.8359 32.6227C46.8359 25.6783 45.3396 20.3405 37.2243 20.3405C34.1393 20.2258 31.2301 21.8161 29.6603 24.4716C29.6526 24.4845 29.6409 24.4945 29.627 24.5001C29.6131 24.5058 29.5977 24.5067 29.5832 24.5028C29.5687 24.4989 29.5559 24.4903 29.5467 24.4784C29.5376 24.4665 29.5325 24.452 29.5324 24.437V21.841C29.5324 21.6131 29.4419 21.3945 29.2807 21.2333C29.1196 21.0722 28.901 20.9816 28.673 20.9816H22.7053C22.4774 20.9816 22.2588 21.0722 22.0977 21.2333C21.9365 21.3945 21.846 21.6131 21.846 21.841V45.9078C21.846 46.1357 21.9365 46.3543 22.0977 46.5155C22.2588 46.6766 22.4774 46.7672 22.7053 46.7672H28.9934C29.2213 46.7672 29.4399 46.6766 29.601 46.5155C29.7622 46.3543 29.8528 46.1357 29.8528 45.9078V34.0113C29.8528 30.6475 30.4908 27.3898 34.6612 27.3898C38.7722 27.3898 38.8255 31.2389 38.8255 34.2291V45.9089C38.8255 46.1368 38.916 46.3554 39.0772 46.5166C39.2384 46.6777 39.4569 46.7683 39.6849 46.7683ZM8.16406 12.8107C8.16406 15.3596 10.2624 17.4569 12.8116 17.4569C15.36 17.4567 17.4571 15.3581 17.4571 12.8096C17.4567 10.2612 15.3594 8.16406 12.8107 8.16406C10.2614 8.16406 8.16406 10.2618 8.16406 12.8107ZM9.65916 46.7683H15.9556C16.1835 46.7683 16.4021 46.6777 16.5633 46.5166C16.7244 46.3554 16.815 46.1368 16.815 45.9089V21.841C16.815 21.6131 16.7244 21.3945 16.5633 21.2333C16.4021 21.0722 16.1835 20.9816 15.9556 20.9816H9.65916C9.43124 20.9816 9.21265 21.0722 9.05149 21.2333C8.89033 21.3945 8.79979 21.6131 8.79979 21.841V45.9089C8.79979 46.1368 8.89033 46.3554 9.05149 46.5166C9.21265 46.6777 9.43124 46.7683 9.65916 46.7683Z" fill="white"/>
</g>
<defs>
<clipPath id="clip0_38_60">
<rect width="55" height="55" rx="20" fill="white"/>
</clipPath>
</defs>
</svg>
