<svg width="38" height="38" viewBox="0 0 38 38" fill="none" xmlns="http://www.w3.org/2000/svg">
<path d="M26.2137 20.4345L25.4933 21.1518C25.4933 21.1518 23.7786 22.8555 19.0998 18.2036C14.4211 13.5518 16.1358 11.8481 16.1358 11.8481L16.5886 11.3953C17.7081 10.2838 17.8141 8.4978 16.8372 7.19313L14.8422 4.52838C13.6326 2.91338 11.2971 2.69963 9.91172 4.07713L7.42589 6.54713C6.7403 7.23113 6.28114 8.11463 6.33655 9.0963C6.47905 11.609 7.61589 17.013 13.9556 23.3178C20.68 30.0026 26.9896 30.2686 29.5688 30.028C30.3858 29.952 31.0951 29.5371 31.6667 28.9671L33.9151 26.7315C35.4351 25.2225 35.0076 22.6338 33.0632 21.5777L30.0391 19.9326C28.7629 19.2407 27.2112 19.4434 26.2137 20.4345Z" fill="black"/>
</svg>
