<svg width="110" height="93" viewBox="0 0 110 93" fill="none" xmlns="http://www.w3.org/2000/svg">
<g filter="url(#filter0_d_31_13)">
<path d="M59.244 25C59.9305 25.0001 60.6012 25.174 61.1698 25.4993C61.7383 25.8246 62.1786 26.2864 62.434 26.8251C64.0565 30.2584 66.0686 32.4245 68.1173 33.7924C70.1523 35.1602 72.389 35.8461 74.6715 36.0941C79.3786 36.6095 84.2094 35.2726 87.1932 34.1605L87.2711 34.1334C87.6936 33.9759 88.1657 33.7994 88.5712 33.6717C88.5783 33.6695 88.5857 33.6684 88.5932 33.6684C88.6009 33.6684 88.6086 33.6672 88.6159 33.6648C89.4163 33.4083 90.2857 33.3464 91.1257 33.4862C91.7314 33.5999 92.301 33.8229 92.7954 34.1399C93.2898 34.4569 93.6974 34.8605 93.9903 35.323C94.5586 36.2142 94.4944 37.1132 94.4715 37.4077V37.4155C94.4394 37.7798 94.3661 38.206 94.3065 38.5741C93.1057 45.677 91.8865 52.776 90.7086 59.8789C90.1128 63.4439 87.8715 65.6643 83.6778 66.6911C67.7032 70.519 50.7848 70.519 34.8103 66.6911C30.6165 65.6643 28.3707 63.4439 27.7794 59.8789C26.6015 52.776 25.3823 45.677 24.1815 38.5741C24.1093 38.1898 24.0543 37.8033 24.0165 37.4155V37.4077C23.9441 36.6885 24.1108 35.9665 24.4978 35.323C24.7906 34.8605 25.1982 34.4569 25.6926 34.1399C26.187 33.8229 26.7566 33.5999 27.3623 33.4862C28.2058 33.3446 29.0793 33.4063 29.8832 33.6645L29.9015 33.6722C30.314 33.7962 30.7907 33.9745 31.2169 34.1334L31.2948 34.1605C34.274 35.2726 39.1048 36.6095 43.8073 36.098C46.2067 35.8578 48.4803 35.0597 50.3753 33.7924C52.4148 32.4245 54.4269 30.2584 56.054 26.8251C56.3094 26.2864 56.7497 25.8246 57.3182 25.4993C57.8868 25.174 58.5575 25.0001 59.244 25Z" fill="#1D0D07"/>
</g>
<defs>
<filter id="filter0_d_31_13" x="-4" y="0" width="118" height="101" filterUnits="userSpaceOnUse" color-interpolation-filters="sRGB">
<feFlood flood-opacity="0" result="BackgroundImageFix"/>
<feColorMatrix in="SourceAlpha" type="matrix" values="0 0 0 0 0 0 0 0 0 0 0 0 0 0 0 0 0 0 127 0" result="hardAlpha"/>
<feOffset dy="4"/>
<feGaussianBlur stdDeviation="2"/>
<feComposite in2="hardAlpha" operator="out"/>
<feColorMatrix type="matrix" values="0 0 0 0 0 0 0 0 0 0 0 0 0 0 0 0 0 0 0.25 0"/>
<feBlend mode="normal" in2="BackgroundImageFix" result="effect1_dropShadow_31_13"/>
<feBlend mode="normal" in="SourceGraphic" in2="effect1_dropShadow_31_13" result="shape"/>
</filter>
</defs>
</svg>
